<svg width="24" height="26" viewBox="0 0 24 26" fill="none" xmlns="http://www.w3.org/2000/svg">
<path d="M7.54627 11.5166V4.84998C7.54627 3.78911 7.99958 2.77169 8.80648 2.02155C9.61338 1.2714 10.7078 0.849976 11.8489 0.849976C12.99 0.849976 14.0844 1.2714 14.8913 2.02155C15.6982 2.77169 16.1515 3.78911 16.1515 4.84998V11.5166M3.71837 7.51664H19.9809C20.3944 7.5166 20.8031 7.5997 21.1789 7.76024C21.5547 7.92079 21.8887 8.15499 22.1581 8.44678C22.4274 8.73857 22.6256 9.08106 22.7393 9.45076C22.8529 9.82045 22.8791 10.2086 22.8163 10.5886L21.0164 21.458C20.8601 22.4026 20.3452 23.2639 19.5649 23.8861C18.7846 24.5083 17.7905 24.8502 16.7625 24.85H6.9353C5.90754 24.8499 4.91375 24.5079 4.13376 23.8857C3.35376 23.2635 2.83909 22.4023 2.68287 21.458L0.882939 10.5886C0.820075 10.2086 0.84635 9.82045 0.959964 9.45076C1.07358 9.08106 1.27184 8.73857 1.54116 8.44678C1.81048 8.15499 2.14449 7.92079 2.52029 7.76024C2.89609 7.5997 3.30479 7.5166 3.71837 7.51664Z" stroke="#211D19" stroke-width="1.7" stroke-linecap="round" stroke-linejoin="round"/>
</svg>
