<svg width="25" height="22" viewBox="0 0 25 22" fill="none" xmlns="http://www.w3.org/2000/svg">
<path d="M21.8257 2.41392C21.2493 1.85481 20.5643 1.4112 19.81 1.1085C19.0558 0.805808 18.2471 0.649994 17.4305 0.649994C16.6138 0.649994 15.8051 0.805808 15.0509 1.1085C14.2967 1.4112 13.6117 1.85481 13.0352 2.41392L12.1504 3.28019L11.2656 2.41392C10.6891 1.85481 10.0041 1.4112 9.24988 1.1085C8.49563 0.805808 7.68699 0.649994 6.87031 0.649994C6.05363 0.649994 5.24499 0.805808 4.49075 1.1085C3.73651 1.4112 3.05151 1.85481 2.47503 2.41392C0.0389573 4.76839 -0.110425 8.74435 2.95765 11.7652L12.1504 20.65L21.3431 11.7652C24.4112 8.74435 24.2618 4.76839 21.8257 2.41392Z" stroke="black" stroke-width="1.3" stroke-linecap="round" stroke-linejoin="round"/>
</svg>
